<svg width="1080" height="458" viewBox="0 0 1080 458" fill="none" xmlns="http://www.w3.org/2000/svg">
<path d="M272.501 313.214H211.411L153.522 16.7875C151.692 7.57723 144.244 0.849172 134.901 0.065321C134.313 0.065321 133.659 0 133.071 0C124.382 0 116.802 5.22568 113.732 13.3908L1.3518 308.184C-1.06568 314.586 -0.216295 321.771 3.70393 327.389C7.55882 333.006 13.9619 336.403 20.8223 336.403H192.463L212.913 441.178C214.743 450.388 222.191 457.116 231.534 457.9C232.122 457.9 232.776 457.965 233.364 457.965C242.054 457.965 249.633 452.74 252.769 444.574L291.971 341.433C294.389 335.031 293.539 327.846 289.619 322.228C285.764 316.611 279.361 313.214 272.501 313.214ZM27.0293 313.214C25.6572 313.214 24.6771 311.842 25.1998 310.536L129.87 35.7306C130.589 33.8363 133.267 34.0975 133.659 36.0572L187.824 313.279H27.0293V313.214ZM235.259 425.435C234.932 426.415 233.495 426.285 233.364 425.305L215.984 336.338H267.731C268.45 336.338 268.907 337.056 268.646 337.709L235.259 425.435Z" fill="url(#paint0_linear_5194_4143)"/>
<path d="M323.724 175.125H314.904C313.14 175.125 311.506 176.04 310.592 177.608L265.378 255.078H279.949L319.216 185.969L358.484 255.078H373.054L327.841 177.608C326.991 176.105 325.293 175.125 323.528 175.125H323.724Z" fill="white"/>
<path d="M424.147 243.713L388.081 175.191H373.772L415.458 252.466C416.307 254.099 418.006 255.079 419.835 255.079H428.46C430.289 255.079 431.988 254.099 432.837 252.466L474.326 175.191H460.148L424.082 243.713H424.147Z" fill="white"/>
<path d="M509.936 175.125H497.979V255.013H509.936V175.125Z" fill="white"/>
<path d="M1080 175.125H1068.04V255.013H1080V175.125Z" fill="white"/>
<path d="M997.608 175.125H988.788C987.024 175.125 985.39 176.04 984.475 177.608L939.262 255.078H953.832L993.1 185.969L1032.37 255.078H1046.94L1001.72 177.608C1000.88 176.105 999.176 175.125 997.412 175.125H997.608Z" fill="white"/>
<path d="M628.193 238.683L554.558 176.759C553.316 175.713 551.748 175.125 550.115 175.125H540.641V255.013H553.121V190.933L626.755 253.38C627.997 254.425 629.565 255.013 631.198 255.013H640.672V175.125H628.193V238.683Z" fill="white"/>
<path d="M741.165 177.281L707.647 212.228L674.129 177.281C672.822 175.91 670.993 175.191 669.163 175.191H656.096L701.374 222.157V255.079H713.854V222.157L759.132 175.191H746.065C744.17 175.191 742.406 175.975 741.099 177.347L741.165 177.281Z" fill="white"/>
<path d="M872.753 175.125H857.594C855.83 175.125 854.197 175.779 852.89 176.954L822.9 204.781L791.8 176.889C790.493 175.779 788.86 175.125 787.226 175.125H771.937L814.145 213.012L768.801 255.078H783.959C785.724 255.078 787.357 254.425 788.664 253.249L823.227 221.177L859.032 253.315C860.339 254.425 861.972 255.078 863.671 255.078H878.96L832.048 213.012L872.818 175.191L872.753 175.125Z" fill="white"/>
<defs>
<linearGradient id="paint0_linear_5194_4143" x1="146.662" y1="0" x2="146.662" y2="457.965" gradientUnits="userSpaceOnUse">
<stop stop-color="#F48134"/>
<stop offset="1" stop-color="#EC5901"/>
</linearGradient>
</defs>
</svg>
